<svg data-v-423bf9ae="" xmlns="http://www.w3.org/2000/svg" viewBox="0 0 485.91302379984006 60" class="font"><!----><!----><!----><g data-v-423bf9ae="" id="6f04b30b-779e-49a5-afad-09aa6d4e427b" fill="white" transform="matrix(5.797101235611727,0,0,5.797101235611727,-0.0000032634454214530706,-17.101448683063346)"><path d="M0.49 3.49L0.49 12.81L4.27 12.81L4.27 13.30L0 13.30L0 2.98L4.27 2.98L4.27 3.49ZM0.83 3.81L4.27 3.81L4.27 4.31L1.32 4.31L1.32 7.48L4.27 7.48L4.27 7.98L0.83 7.98ZM0.83 8.30L4.27 8.30L4.27 8.81L1.32 8.81L1.32 11.98L4.27 11.98L4.27 12.47L0.83 12.47ZM5.21 2.97L5.70 2.97L5.70 12.80L9.70 12.80L9.70 13.29L5.21 13.29ZM9.70 12.46L6.03 12.46L6.03 2.97L6.52 2.97L6.52 11.97L9.70 11.97ZM10.68 3.49L10.68 12.81L14.46 12.81L14.46 13.30L10.19 13.30L10.19 2.98L14.46 2.98L14.46 3.49ZM11.02 3.81L14.46 3.81L14.46 4.31L11.51 4.31L11.51 7.48L14.46 7.48L14.46 7.98L11.02 7.98ZM11.02 8.30L14.46 8.30L14.46 8.81L11.51 8.81L11.51 11.98L14.46 11.98L14.46 12.47L11.02 12.47ZM18.34 12.75L18.62 12.75L21.07 2.98L21.59 2.98L19.00 13.30L17.96 13.30L15.40 2.98L15.89 2.98ZM18.48 9.91L20.23 2.98L20.72 2.98L18.48 11.96L16.24 2.98L16.76 2.98ZM24.39 2.98L25.44 2.98L27.83 13.30L27.31 13.30L25.06 3.57L24.75 3.57L22.50 13.30L21.99 13.30ZM24.91 4.38L26.11 9.60L23.69 9.60ZM24.91 6.58L24.32 9.10L25.49 9.10ZM23.35 13.30L22.83 13.30L23.62 9.93L26.19 9.93L26.98 13.30L26.47 13.30L25.80 10.43L24.01 10.43ZM34.12 3.49L28.28 3.49L28.28 2.98L34.12 2.98ZM28.28 3.81L31.04 3.81L31.04 13.30L30.53 13.30L30.53 4.31L28.28 4.31ZM31.36 13.30L31.36 3.81L34.12 3.81L34.12 4.31L31.86 4.31L31.86 13.30ZM35.36 3.49L35.36 12.81L39.14 12.81L39.14 13.30L34.87 13.30L34.87 2.98L39.14 2.98L39.14 3.49ZM35.70 3.81L39.14 3.81L39.14 4.31L36.19 4.31L36.19 7.48L39.14 7.48L39.14 7.98L35.70 7.98ZM35.70 8.30L39.14 8.30L39.14 8.81L36.19 8.81L36.19 11.98L39.14 11.98L39.14 12.47L35.70 12.47ZM46.93 2.98L47.98 2.98L50.37 13.30L49.85 13.30L47.60 3.57L47.29 3.57L45.04 13.30L44.53 13.30ZM47.45 4.38L48.65 9.60L46.23 9.60ZM47.45 6.58L46.86 9.10L48.03 9.10ZM45.89 13.30L45.37 13.30L46.16 9.93L48.73 9.93L49.52 13.30L49.01 13.30L48.34 10.43L46.55 10.43ZM52.28 8.76L52.28 13.27L51.79 13.27L51.79 8.27L53.10 8.27C54.56 8.27 55.23 7.52 55.23 5.85C55.23 4.21 54.56 3.44 53.10 3.44L50.96 3.44L50.96 2.95L53.10 2.95C53.98 2.95 54.66 3.21 55.10 3.72C55.52 4.20 55.73 4.91 55.73 5.85C55.73 7.74 54.88 8.76 53.10 8.76ZM50.96 3.78L51.45 3.78L51.45 13.27L50.96 13.27ZM51.79 7.94L51.79 3.78L53.10 3.78C54.38 3.78 54.91 4.38 54.91 5.85C54.91 7.32 54.38 7.94 53.10 7.94ZM52.28 4.27L52.28 7.45L53.10 7.45C53.47 7.45 53.72 7.41 53.84 7.32C53.97 7.24 54.05 7.17 54.10 7.13C54.31 6.89 54.40 6.47 54.40 5.85C54.40 5.18 54.29 4.79 54.08 4.56C53.86 4.34 53.54 4.27 53.10 4.27ZM57.65 8.76L57.65 13.27L57.16 13.27L57.16 8.27L58.48 8.27C59.93 8.27 60.61 7.52 60.61 5.85C60.61 4.21 59.93 3.44 58.48 3.44L56.34 3.44L56.34 2.95L58.48 2.95C59.36 2.95 60.03 3.21 60.48 3.72C60.90 4.20 61.11 4.91 61.11 5.85C61.11 7.74 60.26 8.76 58.48 8.76ZM56.34 3.78L56.83 3.78L56.83 13.27L56.34 13.27ZM57.16 7.94L57.16 3.78L58.48 3.78C59.75 3.78 60.28 4.38 60.28 5.85C60.28 7.32 59.75 7.94 58.48 7.94ZM57.65 4.27L57.65 7.45L58.48 7.45C58.84 7.45 59.09 7.41 59.22 7.32C59.35 7.24 59.43 7.17 59.47 7.13C59.68 6.89 59.78 6.47 59.78 5.85C59.78 5.18 59.67 4.79 59.46 4.56C59.23 4.34 58.91 4.27 58.48 4.27ZM64.25 2.98L65.30 2.98L67.69 13.30L67.17 13.30L64.92 3.57L64.61 3.57L62.36 13.30L61.85 13.30ZM64.76 4.38L65.97 9.60L63.55 9.60ZM64.76 6.58L64.18 9.10L65.35 9.10ZM63.21 13.30L62.69 13.30L63.48 9.93L66.05 9.93L66.84 13.30L66.33 13.30L65.66 10.43L63.87 10.43ZM73.07 13.30L72.56 13.30L72.56 10.25C72.56 9.56 72.37 9.02 71.96 8.61C71.79 8.46 71.60 8.33 71.37 8.23C72.16 7.94 72.55 7.17 72.55 5.92C72.55 4.26 71.89 3.49 70.42 3.49L68.28 3.49L68.28 2.98L70.42 2.98C72.20 2.98 73.04 4.00 73.04 5.92C73.04 6.87 72.83 7.60 72.42 8.09C72.41 8.11 72.38 8.13 72.37 8.16C72.34 8.19 72.31 8.22 72.28 8.23C72.79 8.72 73.07 9.39 73.07 10.25ZM68.28 3.81L68.77 3.81L68.77 13.30L68.28 13.30ZM69.10 8.05L69.10 3.81L70.42 3.81C71.69 3.81 72.21 4.42 72.21 5.92C72.21 7.43 71.69 8.05 70.42 8.05ZM69.59 4.31L69.59 7.56L70.42 7.56C70.77 7.56 71.02 7.52 71.16 7.43C71.29 7.35 71.37 7.28 71.41 7.24C71.62 6.97 71.72 6.54 71.72 5.92C71.72 5.24 71.61 4.83 71.40 4.59C71.18 4.37 70.85 4.31 70.42 4.31ZM72.24 13.30L71.74 13.30L71.74 10.25C71.74 9.34 71.30 8.89 70.42 8.89L69.59 8.89L69.59 13.30L69.10 13.30L69.10 8.39L70.42 8.39C71.58 8.39 72.24 9.06 72.24 10.25ZM74.61 3.49L74.61 12.81L78.39 12.81L78.39 13.30L74.12 13.30L74.12 2.98L78.39 2.98L78.39 3.49ZM74.94 3.81L78.39 3.81L78.39 4.31L75.43 4.31L75.43 7.48L78.39 7.48L78.39 7.98L74.94 7.98ZM74.94 8.30L78.39 8.30L78.39 8.81L75.43 8.81L75.43 11.98L78.39 11.98L78.39 12.47L74.94 12.47ZM79.32 2.97L79.81 2.97L79.81 12.80L83.82 12.80L83.82 13.29L79.32 13.29ZM83.82 12.46L80.15 12.46L80.15 2.97L80.64 2.97L80.64 11.97L83.82 11.97Z"></path></g><!----><!----></svg>